<svg width="15" height="13" viewBox="0 0 15 13" fill="none" xmlns="http://www.w3.org/2000/svg">
<path d="M0.857422 0.573528C0.857422 0.45262 0.90408 0.336665 0.987132 0.25117C1.07018 0.165676 1.18283 0.117645 1.30028 0.117645H2.62886C2.72764 0.117673 2.82358 0.1517 2.90142 0.214315C2.97926 0.276929 3.03452 0.364536 3.05843 0.463204L3.41715 1.94117H13.7003C13.7676 1.94119 13.834 1.95699 13.8944 1.98736C13.9549 2.01773 14.0078 2.06188 14.0492 2.11645C14.0906 2.17103 14.1194 2.2346 14.1334 2.30233C14.1474 2.37007 14.1462 2.44019 14.1299 2.50738L12.8013 7.97797C12.7774 8.07664 12.7222 8.16424 12.6443 8.22686C12.5665 8.28947 12.4705 8.3235 12.3718 8.32353H4.40029C4.30151 8.3235 4.20557 8.28947 4.12773 8.22686C4.04989 8.16424 3.99463 8.07664 3.97072 7.97797L2.28343 1.02941H1.30028C1.18283 1.02941 1.07018 0.98138 0.987132 0.895885C0.90408 0.81039 0.857422 0.694435 0.857422 0.573528ZM3.63858 2.85294L4.74572 7.41176H12.0263L13.1335 2.85294H3.63858ZM5.28601 10.1471C5.0511 10.1471 4.82582 10.2431 4.65971 10.4141C4.49361 10.5851 4.40029 10.817 4.40029 11.0588C4.40029 11.3006 4.49361 11.5325 4.65971 11.7035C4.82582 11.8745 5.0511 11.9706 5.28601 11.9706C5.52092 11.9706 5.7462 11.8745 5.91231 11.7035C6.07841 11.5325 6.17173 11.3006 6.17173 11.0588C6.17173 10.817 6.07841 10.5851 5.91231 10.4141C5.7462 10.2431 5.52092 10.1471 5.28601 10.1471ZM3.51458 11.0588C3.51458 10.5752 3.70121 10.1114 4.03342 9.76939C4.36563 9.42741 4.8162 9.23529 5.28601 9.23529C5.75582 9.23529 6.2064 9.42741 6.5386 9.76939C6.87081 10.1114 7.05745 10.5752 7.05745 11.0588C7.05745 11.5425 6.87081 12.0063 6.5386 12.3483C6.2064 12.6902 5.75582 12.8824 5.28601 12.8824C4.8162 12.8824 4.36563 12.6902 4.03342 12.3483C3.70121 12.0063 3.51458 11.5425 3.51458 11.0588ZM11.486 10.1471C11.2511 10.1471 11.0258 10.2431 10.8597 10.4141C10.6936 10.5851 10.6003 10.817 10.6003 11.0588C10.6003 11.3006 10.6936 11.5325 10.8597 11.7035C11.0258 11.8745 11.2511 11.9706 11.486 11.9706C11.7209 11.9706 11.9462 11.8745 12.1123 11.7035C12.2784 11.5325 12.3718 11.3006 12.3718 11.0588C12.3718 10.817 12.2784 10.5851 12.1123 10.4141C11.9462 10.2431 11.7209 10.1471 11.486 10.1471ZM9.7146 11.0588C9.7146 10.5752 9.90123 10.1114 10.2334 9.76939C10.5656 9.42741 11.0162 9.23529 11.486 9.23529C11.9558 9.23529 12.4064 9.42741 12.7386 9.76939C13.0708 10.1114 13.2575 10.5752 13.2575 11.0588C13.2575 11.5425 13.0708 12.0063 12.7386 12.3483C12.4064 12.6902 11.9558 12.8824 11.486 12.8824C11.0162 12.8824 10.5656 12.6902 10.2334 12.3483C9.90123 12.0063 9.7146 11.5425 9.7146 11.0588Z" fill="white"/>
</svg>
