<svg width="24" height="24" viewBox="0 0 24 24" fill="none" xmlns="http://www.w3.org/2000/svg">
<path d="M12.1238 18.689C15.8878 18.689 18.9365 15.6286 18.9365 11.8763C18.9365 8.124 15.8878 5.06354 12.1238 5.06354C8.35977 5.06354 5.31104 8.11227 5.31104 11.8763C5.31104 15.6403 8.35977 18.689 12.1238 18.689ZM12.1238 6.01334C15.3484 6.01334 17.9867 8.63994 17.9867 11.8763C17.9867 15.1126 15.3601 17.7392 12.1238 17.7392C8.88744 17.7392 6.26083 15.1126 6.26083 11.8763C6.26083 8.63994 8.89916 6.01334 12.1238 6.01334Z" fill="white"/>
<path d="M10.8694 15.4175C11.1391 15.4175 11.3502 15.2064 11.3502 14.9367V8.71028C11.3502 8.44059 11.1391 8.22952 10.8694 8.22952C10.5997 8.22952 10.3887 8.44059 10.3887 8.71028V14.9367C10.3887 15.2064 10.5997 15.4175 10.8694 15.4175Z" fill="white"/>
<path d="M13.3787 15.4175C13.6484 15.4175 13.8595 15.2064 13.8595 14.9367V8.71028C13.8595 8.44059 13.6484 8.22952 13.3787 8.22952C13.109 8.22952 12.8979 8.44059 12.8979 8.71028V14.9367C12.8979 15.2064 13.109 15.4175 13.3787 15.4175Z" fill="white"/>
</svg>
