<svg width="24" height="24" viewBox="0 0 24 24" fill="none" xmlns="http://www.w3.org/2000/svg">
<path d="M12.1238 18.689C15.8813 18.689 18.9365 15.6338 18.9365 11.8763C18.9365 8.11874 15.8813 5.06354 12.1238 5.06354C8.36624 5.06354 5.31104 8.11874 5.31104 11.8763C5.31104 15.6338 8.36624 18.689 12.1238 18.689ZM12.1238 6.02341C15.3546 6.02341 17.9767 8.6455 17.9767 11.8763C17.9767 15.1071 15.3546 17.7292 12.1238 17.7292C8.893 17.7292 6.27091 15.0954 6.27091 11.8763C6.27091 8.65721 8.893 6.02341 12.1238 6.02341Z" fill="#EADADB"/>
<path d="M10.7892 15.388C10.8477 15.4114 10.9063 15.4231 10.9765 15.4231C11.1053 15.4231 11.2223 15.3763 11.316 15.2827L14.4063 12.1806C14.4999 12.087 14.5468 11.9699 14.5468 11.8412C14.5468 11.7124 14.4999 11.5837 14.4063 11.5017L11.3043 8.39969C11.1638 8.25922 10.9648 8.2241 10.7775 8.29433C10.6019 8.36457 10.4849 8.54015 10.4849 8.73915V14.9432C10.4849 15.1305 10.6019 15.3061 10.7892 15.388V15.388ZM11.4447 9.89802L13.3879 11.8412L11.4447 13.7843V9.89802V9.89802Z" fill="#EADADB"/>
</svg>
