<svg width="140" height="140" viewBox="0 0 140 140" fill="none" xmlns="http://www.w3.org/2000/svg">
<path d="M86.2987 38.0133L77.9993 38C68.6753 38 62.6496 44.1821 62.6496 53.7505V61.0125H54.305C53.5839 61.0125 53 61.5971 53 62.3182V72.84C53 73.5611 53.5846 74.145 54.305 74.145H62.6496V100.695C62.6496 101.416 63.2336 102 63.9546 102H74.842C75.5631 102 76.147 101.415 76.147 100.695V74.145H85.9038C86.6249 74.145 87.2088 73.5611 87.2088 72.84L87.2128 62.3182C87.2128 61.972 87.075 61.6404 86.8307 61.3954C86.5863 61.1503 86.2534 61.0125 85.9072 61.0125H76.147V54.8564C76.147 51.8975 76.8521 50.3955 80.7065 50.3955L86.2973 50.3935C87.0177 50.3935 87.6017 49.8089 87.6017 49.0885V39.3183C87.6017 38.5986 87.0184 38.0146 86.2987 38.0133Z" fill="white"/>
</svg>
