<svg width="20" height="17" viewBox="0 0 20 17" fill="none" xmlns="http://www.w3.org/2000/svg">
<path d="M0 0.588235C0 0.432226 0.0692348 0.282606 0.192473 0.17229C0.315712 0.0619747 0.48286 0 0.657145 0H2.62858C2.77517 3.62488e-05 2.91753 0.043942 3.03303 0.124735C3.14853 0.205528 3.23054 0.318569 3.26601 0.445882L3.7983 2.35294H19.0572C19.157 2.35297 19.2555 2.37335 19.3452 2.41253C19.4349 2.45172 19.5135 2.50869 19.5749 2.57911C19.6364 2.64953 19.6791 2.73155 19.6998 2.81895C19.7206 2.90635 19.7188 2.99683 19.6946 3.08353L17.7232 10.1424C17.6877 10.2697 17.6057 10.3827 17.4902 10.4635C17.3747 10.5443 17.2324 10.5882 17.0858 10.5882H5.25716C5.11058 10.5882 4.96822 10.5443 4.85271 10.4635C4.73721 10.3827 4.65521 10.2697 4.61973 10.1424L2.11601 1.17647H0.657145C0.48286 1.17647 0.315712 1.1145 0.192473 1.00418C0.0692348 0.893865 0 0.744245 0 0.588235ZM4.12687 3.52941L5.76974 9.41177H16.5732L18.2161 3.52941H4.12687ZM6.57145 12.9412C6.22288 12.9412 5.88859 13.0651 5.64211 13.2858C5.39563 13.5064 5.25716 13.8056 5.25716 14.1176C5.25716 14.4297 5.39563 14.7289 5.64211 14.9495C5.88859 15.1702 6.22288 15.2941 6.57145 15.2941C6.92003 15.2941 7.25432 15.1702 7.5008 14.9495C7.74727 14.7289 7.88574 14.4297 7.88574 14.1176C7.88574 13.8056 7.74727 13.5064 7.5008 13.2858C7.25432 13.0651 6.92003 12.9412 6.57145 12.9412ZM3.94287 14.1176C3.94287 13.4936 4.21981 12.8951 4.71277 12.4539C5.20572 12.0126 5.87431 11.7647 6.57145 11.7647C7.2686 11.7647 7.93719 12.0126 8.43014 12.4539C8.9231 12.8951 9.20004 13.4936 9.20004 14.1176C9.20004 14.7417 8.9231 15.3402 8.43014 15.7814C7.93719 16.2227 7.2686 16.4706 6.57145 16.4706C5.87431 16.4706 5.20572 16.2227 4.71277 15.7814C4.21981 15.3402 3.94287 14.7417 3.94287 14.1176ZM15.7715 12.9412C15.4229 12.9412 15.0886 13.0651 14.8421 13.2858C14.5957 13.5064 14.4572 13.8056 14.4572 14.1176C14.4572 14.4297 14.5957 14.7289 14.8421 14.9495C15.0886 15.1702 15.4229 15.2941 15.7715 15.2941C16.1201 15.2941 16.4544 15.1702 16.7008 14.9495C16.9473 14.7289 17.0858 14.4297 17.0858 14.1176C17.0858 13.8056 16.9473 13.5064 16.7008 13.2858C16.4544 13.0651 16.1201 12.9412 15.7715 12.9412ZM13.1429 14.1176C13.1429 13.4936 13.4198 12.8951 13.9128 12.4539C14.4058 12.0126 15.0743 11.7647 15.7715 11.7647C16.4686 11.7647 17.1372 12.0126 17.6302 12.4539C18.1231 12.8951 18.4001 13.4936 18.4001 14.1176C18.4001 14.7417 18.1231 15.3402 17.6302 15.7814C17.1372 16.2227 16.4686 16.4706 15.7715 16.4706C15.0743 16.4706 14.4058 16.2227 13.9128 15.7814C13.4198 15.3402 13.1429 14.7417 13.1429 14.1176Z" fill="black"/>
</svg>
