<svg width="140" height="140" viewBox="0 0 140 140" fill="none" xmlns="http://www.w3.org/2000/svg">
<path d="M110.565 89.2516C110.466 89.0376 110.373 88.8601 110.287 88.7179C108.865 86.1556 106.146 83.0105 102.133 79.2818L102.048 79.1964L102.006 79.1546L101.963 79.1116H101.92C100.098 77.3754 98.9447 76.2079 98.4617 75.6102C97.578 74.4717 97.38 73.3192 97.863 72.1515C98.2042 71.2692 99.4861 69.406 101.705 66.5592C102.873 65.0505 103.798 63.8414 104.48 62.9304C109.405 56.3837 111.54 52.2002 110.885 50.3784L110.63 49.9527C110.459 49.6964 110.018 49.4619 109.308 49.2481C108.595 49.0347 107.685 48.9994 106.574 49.1416L94.2787 49.2265C94.0796 49.156 93.7951 49.1625 93.4246 49.2481C93.0545 49.3336 92.8694 49.3765 92.8694 49.3765L92.6554 49.4835L92.4855 49.6119C92.3431 49.6968 92.1866 49.8462 92.0157 50.0598C91.8456 50.2726 91.7034 50.5223 91.5898 50.8069C90.2511 54.2508 88.7291 57.4529 87.021 60.4128C85.9678 62.1778 85.0006 63.7074 84.1173 65.0025C83.2351 66.2972 82.4951 67.2511 81.8978 67.8626C81.2997 68.4746 80.7598 68.965 80.275 69.3354C79.791 69.7059 79.4215 69.8625 79.1656 69.8052C78.9092 69.7479 78.6677 69.6911 78.439 69.6343C78.0408 69.378 77.7205 69.0294 77.479 68.5883C77.2365 68.1472 77.0732 67.5919 76.9878 66.923C76.9028 66.2537 76.8526 65.678 76.8382 65.1939C76.8249 64.7105 76.8311 64.0267 76.8599 63.1444C76.8895 62.2617 76.9028 61.6644 76.9028 61.3513C76.9028 60.2695 76.9239 59.0955 76.9662 57.829C77.0093 56.5624 77.0442 55.5588 77.0733 54.8195C77.1023 54.0795 77.1158 53.2965 77.1158 52.4711C77.1158 51.6456 77.0655 50.9983 76.9662 50.5284C76.8682 50.0592 76.7176 49.6037 76.5191 49.1621C76.3195 48.721 76.0273 48.3797 75.6439 48.1375C75.2597 47.8955 74.7821 47.7035 74.2137 47.5609C72.705 47.2195 70.7839 47.0348 68.4495 47.0061C63.1558 46.9493 59.7542 47.2911 58.2457 48.0311C57.648 48.3438 57.1071 48.7711 56.6235 49.3115C56.1111 49.9379 56.0396 50.2797 56.4095 50.336C58.1176 50.5918 59.3267 51.2039 60.0384 52.1715L60.2948 52.6843C60.4943 53.0542 60.6935 53.7092 60.8928 54.6483C61.0918 55.5874 61.2203 56.6262 61.2768 57.7642C61.4189 59.8423 61.4189 61.6212 61.2768 63.101C61.1343 64.5814 60.9997 65.7339 60.8713 66.5594C60.7428 67.3848 60.5508 68.0537 60.2948 68.5659C60.0384 69.0782 59.8677 69.3913 59.7822 69.5049C59.6968 69.6186 59.6256 69.6902 59.5691 69.7183C59.1992 69.8601 58.8144 69.9323 58.4162 69.9323C58.0174 69.9323 57.5338 69.7328 56.9646 69.3342C56.3956 68.9355 55.8051 68.3879 55.1931 67.6905C54.581 66.9929 53.8907 66.018 53.122 64.7658C52.3538 63.5136 51.5568 62.0336 50.7313 60.3259L50.0484 59.0875C49.6215 58.2907 49.0383 57.1306 48.2982 55.6082C47.5577 54.0852 46.9032 52.6119 46.3342 51.1888C46.1067 50.5911 45.765 50.136 45.3097 49.8229L45.096 49.6944C44.954 49.5808 44.7259 49.4601 44.4131 49.3315C44.0998 49.2031 43.7729 49.111 43.4311 49.0543L31.7329 49.1392C30.5375 49.1392 29.7265 49.41 29.2994 49.9509L29.1285 50.2068C29.0431 50.3493 29 50.5769 29 50.8901C29 51.2033 29.0854 51.5876 29.2563 52.0426C30.964 56.0562 32.8211 59.927 34.8276 63.6555C36.8341 67.3841 38.5777 70.3875 40.0574 72.6632C41.5373 74.9405 43.0459 77.0898 44.583 79.11C46.12 81.131 47.1375 82.4261 47.6353 82.9951C48.1337 83.5652 48.5252 83.9913 48.8098 84.2759L49.8773 85.3004C50.5604 85.9836 51.5635 86.8019 52.887 87.7552C54.2109 88.7091 55.6765 89.6482 57.2846 90.5739C58.893 91.4982 60.7642 92.2525 62.8991 92.8358C65.0338 93.4198 67.1115 93.6541 69.1324 93.5411H74.0423C75.0381 93.4551 75.7925 93.1419 76.3053 92.6015L76.4752 92.3875C76.5894 92.2177 76.6963 91.9537 76.795 91.5986C76.8949 91.2428 76.9446 90.8509 76.9446 90.4246C76.9154 89.2009 77.0086 88.0981 77.2215 87.1162C77.4343 86.1346 77.6768 85.3946 77.9481 84.8962C78.2192 84.3982 78.5252 83.978 78.8657 83.6374C79.2069 83.296 79.4501 83.0892 79.5927 83.018C79.7345 82.9464 79.8477 82.8978 79.9331 82.8686C80.6161 82.641 81.4201 82.8614 82.346 83.5309C83.2712 84.1998 84.1389 85.0257 84.9506 86.0072C85.7619 86.9897 86.7365 88.0919 87.8748 89.3156C89.0138 90.5397 90.0098 91.4496 90.8633 92.0482L91.7169 92.5605C92.2869 92.9024 93.027 93.2155 93.938 93.5001C94.8473 93.7845 95.644 93.8557 96.3281 93.7135L107.257 93.543C108.338 93.543 109.179 93.364 109.776 93.0089C110.374 92.6531 110.729 92.2612 110.844 91.8348C110.958 91.4081 110.964 90.9239 110.865 90.3825C110.764 89.8426 110.664 89.465 110.565 89.2516Z" fill="white"/>
</svg>
