<svg width="140" height="140" viewBox="0 0 140 140" fill="none" xmlns="http://www.w3.org/2000/svg">
<path d="M46.2146 38H93.7854C98.3031 38 101.999 41.3447 101.999 46.214V93.786C101.999 98.6553 98.3031 102 93.7854 102H46.2146C41.6956 102 38 98.6553 38 93.786V46.214C38 41.3447 41.6956 38 46.2146 38ZM84.6212 45.1107C83.0362 45.1107 81.7411 46.4065 81.7411 47.9921V54.8886C81.7411 56.4736 83.0362 57.7701 84.6212 57.7701H91.8548C93.4397 57.7701 94.7362 56.4736 94.7362 54.8886V47.9921C94.7362 46.4065 93.4397 45.1107 91.8548 45.1107H84.6212ZM94.7665 65.0654H89.1336C89.6666 66.8054 89.955 68.6486 89.955 70.5556C89.955 81.2009 81.0471 89.8302 70.0608 89.8302C59.0751 89.8302 50.1685 81.2009 50.1685 70.5556C50.1685 68.6473 50.4563 66.8048 50.9899 65.0654H45.112V92.0999C45.112 93.4989 46.2567 94.6442 47.6563 94.6442H92.2234C93.6231 94.6442 94.7678 93.4995 94.7678 92.0999V65.0654H94.7665ZM70.0601 57.4067C62.9619 57.4067 57.2069 62.9823 57.2069 69.861C57.2069 76.7397 62.9619 82.3154 70.0601 82.3154C77.159 82.3154 82.9147 76.7397 82.9147 69.861C82.9147 62.9823 77.1596 57.4067 70.0601 57.4067Z" fill="white"/>
</svg>
