<svg width="154" height="19" viewBox="0 0 154 19" fill="none" xmlns="http://www.w3.org/2000/svg">
<path d="M0 17.1761C0.987653 17.7824 2.34757 18.1791 3.76828 18.1791C6.79201 18.1791 8.77492 16.5023 8.77492 14.0096C8.77492 11.7864 7.35422 10.6036 4.94586 9.69037C2.94017 8.86694 1.88414 8.20071 1.88414 6.67363C1.88414 5.33369 2.87179 4.14347 4.75593 4.14347C6.23741 4.14347 7.19467 4.65998 7.71889 5.02678L8.27349 3.83656C7.53655 3.32753 6.36656 2.93079 5.00664 2.93079C2.13485 2.93079 0.433048 4.78724 0.433048 6.89072C0.433048 8.65734 1.76258 9.96734 4.20132 10.8806C6.33617 11.734 7.32383 12.5873 7.32383 14.1968C7.32383 15.7163 6.21462 16.9665 3.86704 16.9665C2.53751 16.9665 1.33713 16.4499 0.531813 15.9634L0 17.1761Z" fill="#4B433E"/>
<path d="M27.0997 3.26758H25.6182V17.8796H27.0997V3.26758Z" fill="#4B433E"/>
<path d="M47.7112 9.69028C45.3029 10.6035 43.8822 11.7938 43.8822 14.0095C43.8822 16.5023 45.8575 18.1791 48.8888 18.1791C50.3095 18.1791 51.6694 17.7823 52.6571 17.176L52.1329 15.9558C51.3276 16.4424 50.1272 16.9589 48.7976 16.9589C46.4501 16.9589 45.3409 15.7088 45.3409 14.1892C45.3409 12.5723 46.3285 11.7264 48.4634 10.873C50.9021 9.95977 52.2316 8.64977 52.2316 6.88315C52.2316 4.78716 50.5298 2.92322 47.658 2.92322C46.2981 2.92322 45.1281 3.31996 44.3836 3.83647L44.9382 5.0267C45.4624 4.6599 46.4197 4.14339 47.9012 4.14339C49.7853 4.14339 50.773 5.33361 50.773 6.67355C50.7654 8.20063 49.7169 8.86686 47.7112 9.69028Z" fill="#4B433E"/>
<path d="M76.1936 17.8497L76.0113 16.7493C75.639 16.8691 75.0844 16.9664 74.3095 16.9664C72.7292 16.9664 72.1442 15.8061 72.1442 13.9497V4.45782H76.3759V3.26759H72.1442V0.0412598L70.6628 0.587715V3.26759H68.1632V4.45782H70.6628V13.6802C70.6628 15.1698 70.9135 16.42 71.5896 17.1835C72.1442 17.8797 73.0407 18.2165 74.1195 18.2165C75.0236 18.2165 75.6998 18.0593 76.1936 17.8497Z" fill="#4B433E"/>
<path d="M104.251 9.54061C104.251 7.44462 103.324 2.93823 98.4766 2.93823C94.6475 2.93823 91.8061 5.98491 91.8061 10.8506C91.8061 15.1399 94.4652 18.1866 98.7273 18.1866C101.326 18.1866 102.837 17.5503 103.392 17.2434L103.02 16.113C102.184 16.5098 101.075 16.9365 98.9096 16.9365C95.8175 16.9365 93.2572 15.08 93.2572 10.4239H104.197C104.251 10.147 104.251 9.93735 104.251 9.54061ZM93.318 9.26364C93.5915 7.01045 95.0198 4.15091 98.2942 4.15091C101.88 4.15091 102.739 7.22753 102.708 9.26364H93.318Z" fill="#4B433E"/>
<path d="M123.654 17.8797V9.81014C123.654 9.32357 123.685 8.837 123.776 8.41031C124.178 6.06729 125.629 4.33061 127.666 4.33061C127.947 4.33061 128.159 4.33061 128.38 4.3905V2.99067C128.197 2.96073 127.977 2.93079 127.764 2.93079C125.759 2.93079 124.216 4.3905 123.563 6.217H123.472L123.411 3.26764H122.051C122.142 4.69741 122.173 6.18706 122.173 7.65426V17.8797H123.654Z" fill="#4B433E"/>
<path d="M149.303 9.69028C147.297 8.86686 146.241 8.20063 146.241 6.67355C146.241 5.33361 147.229 4.14339 149.113 4.14339C150.594 4.14339 151.552 4.6599 152.076 5.0267L152.63 3.83647C151.886 3.31996 150.716 2.92322 149.356 2.92322C146.484 2.92322 144.782 4.77967 144.782 6.88315C144.782 8.64977 146.112 9.95977 148.551 10.873C150.685 11.7264 151.673 12.5798 151.673 14.1892C151.673 15.7088 150.564 16.9589 148.216 16.9589C146.887 16.9589 145.686 16.4424 144.881 15.9558L144.357 17.176C145.345 17.7823 146.704 18.1791 148.125 18.1791C151.149 18.1791 153.132 16.5023 153.132 14.0095C153.132 11.7938 151.711 10.6035 149.303 9.69028Z" fill="#4B433E"/>
<path d="M6.83761 14.1218C6.83761 12.7295 5.69041 11.5991 4.27731 11.5991C2.86421 11.5991 1.71701 12.7295 1.71701 14.1218C1.71701 15.5141 2.86421 16.6445 4.27731 16.6445C5.69041 16.6445 6.83761 15.5141 6.83761 14.1218ZM2.47674 14.1218C2.47674 13.1412 3.28206 12.3477 4.27731 12.3477C5.27256 12.3477 6.07788 13.1487 6.07788 14.1218C6.07788 15.0949 5.27256 15.8959 4.27731 15.8959C3.28206 15.8959 2.47674 15.1024 2.47674 14.1218Z" fill="#4B433E"/>
<path d="M45.7055 14.1218C45.7055 15.5141 46.8527 16.6445 48.2658 16.6445C49.6789 16.6445 50.8261 15.5141 50.8261 14.1218C50.8261 12.7295 49.6789 11.5991 48.2658 11.5991C46.8527 11.5991 45.7055 12.7369 45.7055 14.1218ZM50.0664 14.1218C50.0664 15.1024 49.2611 15.8959 48.2658 15.8959C47.2706 15.8959 46.4653 15.1024 46.4653 14.1218C46.4653 13.1412 47.2706 12.3477 48.2658 12.3477C49.2611 12.3477 50.0664 13.1487 50.0664 14.1218Z" fill="#4B433E"/>
<path d="M146.796 6.74842C146.796 8.01351 147.844 9.04653 149.128 9.04653C150.412 9.04653 151.46 8.01351 151.46 6.74842C151.46 5.48334 150.412 4.45032 149.128 4.45032C147.844 4.45032 146.796 5.47586 146.796 6.74842ZM150.701 6.74842C150.701 7.60179 149.994 8.29796 149.128 8.29796C148.262 8.29796 147.555 7.60179 147.555 6.74842C147.555 5.89506 148.262 5.19889 149.128 5.19889C149.994 5.19889 150.701 5.89506 150.701 6.74842Z" fill="#4B433E"/>
</svg>
