<svg width="106" height="106" viewBox="0 0 106 106" fill="none" xmlns="http://www.w3.org/2000/svg">
<path d="M29.5423 21C24.8356 21 21.0034 24.8314 21 29.5418C21 34.2522 24.8321 38.0843 29.5423 38.0843C34.2507 38.0843 38.0809 34.2522 38.0809 29.5418C38.0809 24.8319 34.2505 21 29.5423 21Z" fill="white"/>
<path d="M35.9533 41.5164H23.1301C22.5202 41.5164 22.0254 42.0109 22.0254 42.6213V83.8952C22.0254 84.5054 22.5202 84.9999 23.1301 84.9999H35.953C36.5632 84.9999 37.058 84.5052 37.058 83.8952V42.6213C37.0583 42.0106 36.5635 41.5164 35.9533 41.5164Z" fill="white"/>
<path d="M68.735 41.0305C64.0424 41.0305 59.9186 42.4594 57.4021 44.7895V42.6214C57.4021 42.0109 56.9074 41.5164 56.2971 41.5164H43.9966C43.3864 41.5164 42.8916 42.0109 42.8916 42.6214V83.8953C42.8916 84.5055 43.3864 85 43.9966 85H56.8074C57.4176 85 57.9124 84.5052 57.9124 83.8953V63.4751C57.9124 57.6161 58.9901 53.9846 64.3683 53.9846C69.667 53.991 70.0635 57.8852 70.0635 63.8251V83.8953C70.0635 84.5055 70.5583 85 71.1688 85H83.9855C84.5955 85 85.0902 84.5052 85.0902 83.8953V61.2548C85.09 51.8386 83.231 41.0305 68.735 41.0305Z" fill="white"/>
</svg>
