<svg width="106" height="106" viewBox="0 0 106 106" fill="none" xmlns="http://www.w3.org/2000/svg">
<path d="M75.0002 49.4441H45.1335V59.3997H63.3552C60.637 68.0549 52.5525 74.3331 42.9999 74.3331C31.2176 74.3331 21.6667 64.7816 21.6667 52.9997C21.6667 41.2174 31.2179 31.6665 42.9999 31.6665C48.9331 31.6665 54.2995 34.0892 58.1665 37.9985L65.393 30.1436C59.6215 24.4883 51.7188 21 42.9999 21C25.3269 20.9998 11 35.3268 11 52.9997C11 70.6727 25.3269 85 43.0001 85C58.4811 85 72.0351 74.0057 75.0003 59.3999V49.4443L75.0002 49.4441Z" fill="white"/>
<path d="M94.3942 49.4271H88.2852V43.3181H83.0485V49.4271H76.9395V54.6633H83.0485V60.7726H88.2852V54.6633H94.3942V49.4271Z" fill="white"/>
</svg>
