<svg width="32" height="33" viewBox="0 0 32 33" fill="none" xmlns="http://www.w3.org/2000/svg">
<path fill-rule="evenodd" clip-rule="evenodd" d="M9.79748 9.9674C10.2963 9.46855 11.1051 9.46855 11.604 9.9674L16.1651 14.5285L20.7263 9.9674C21.2251 9.46855 22.0339 9.46855 22.5328 9.9674C23.0316 10.4663 23.0316 11.2751 22.5328 11.7739L17.9716 16.335L22.5328 20.8962C23.0316 21.395 23.0316 22.2038 22.5328 22.7027C22.0339 23.2016 21.2251 23.2016 20.7263 22.7027L16.1651 18.1416L11.604 22.7027C11.1051 23.2016 10.2963 23.2016 9.79748 22.7027C9.29863 22.2038 9.29863 21.395 9.79748 20.8962L14.3586 16.335L9.79748 11.7739C9.29863 11.2751 9.29863 10.4663 9.79748 9.9674Z" fill="white"/>
</svg>
